<svg width="44" height="38" viewBox="0 0 44 38" fill="none" xmlns="http://www.w3.org/2000/svg">
<rect x="0.5" width="43" height="38" rx="16" fill="#ECFDF5"/>
<path fill-rule="evenodd" clip-rule="evenodd" d="M22.3226 19.3396C22.0932 16.2271 20.9696 13.6238 19.3911 12.0253C17.3165 14.1154 16.0564 17.8511 16.3548 21.8479C16.5842 24.9604 17.7078 27.5637 19.2863 29.1622C21.3609 27.0721 22.621 23.3364 22.3226 19.3396Z" fill="#9FE3CD"/>
<path fill-rule="evenodd" clip-rule="evenodd" d="M20.688 23.4172C23.8934 23.1358 26.5567 21.9972 28.1752 20.4368C25.9805 18.4654 22.1042 17.3147 17.9883 17.6798C14.7829 17.9612 12.1196 19.0998 10.5011 20.6602C12.6958 22.6316 16.5721 23.7823 20.688 23.4172Z" fill="#9FE3CD"/>
<path fill-rule="evenodd" clip-rule="evenodd" d="M30.7801 12.2366C30.6735 10.7903 30.1514 9.58058 29.4179 8.83779C28.4539 9.80902 27.8683 11.5449 28.007 13.4021C28.1136 14.8484 28.6357 16.0581 29.3692 16.8009C30.3332 15.8297 30.9188 14.0938 30.7801 12.2366Z" fill="#9FE3CD"/>
<path fill-rule="evenodd" clip-rule="evenodd" d="M30.0198 14.152C31.5092 14.0213 32.7468 13.4922 33.4989 12.7671C32.4791 11.851 30.6778 11.3163 28.7653 11.486C27.2758 11.6167 26.0382 12.1458 25.2861 12.8709C26.306 13.787 28.1072 14.3216 30.0198 14.152Z" fill="#9FE3CD"/>
</svg>
