<svg width="24" height="24" viewBox="0 0 24 24" fill="none" xmlns="http://www.w3.org/2000/svg">
<path d="M18.2395 5.2063C18.189 3.27394 17.4261 1.66272 15.9191 0.754677C12.5584 -1.28288 6.7891 0.948466 3.03746 5.72676C-0.714176 10.5051 -1.03574 16.0308 2.32496 18.0684C3.30228 18.6608 4.48137 18.8823 5.75503 18.7937C5.69198 16.4129 6.70713 13.5503 8.78156 10.9092C11.4487 7.51516 15.1247 5.4167 18.2332 5.21183L18.2395 5.2063Z" fill="url(#paint0_linear_997_6229)"/>
<path d="M21.6699 5.93749C20.6926 5.34505 19.5135 5.12358 18.2398 5.21217C18.3029 7.59301 17.2878 10.4556 15.2133 13.0966C12.5462 16.4907 8.87022 18.5892 5.76172 18.794C5.81216 20.7264 6.5751 22.3376 8.08206 23.2457C11.4428 25.2832 17.2121 23.0519 20.9637 18.2736C24.7154 13.4953 25.0369 7.96952 21.6699 5.93196V5.93749Z" fill="url(#paint1_linear_997_6229)"/>
<path fill-rule="evenodd" clip-rule="evenodd" d="M15.2122 13.0964C17.2866 10.4553 18.3018 7.59276 18.2387 5.21191C15.1239 5.42231 11.4479 7.51524 8.78711 10.9093C6.71268 13.5504 5.69753 16.4129 5.76058 18.7938C8.87538 18.5834 12.5514 16.4905 15.2122 13.0964Z" fill="#9FE3CD"/>
<defs>
<linearGradient id="paint0_linear_997_6229" x1="9.11973" y1="0" x2="9.11973" y2="18.8125" gradientUnits="userSpaceOnUse">
<stop stop-color="#0D9467"/>
<stop offset="1" stop-color="#7EF0CA"/>
</linearGradient>
<linearGradient id="paint1_linear_997_6229" x1="14.881" y1="5.19336" x2="14.881" y2="24.0003" gradientUnits="userSpaceOnUse">
<stop stop-color="#0D9467"/>
<stop offset="1" stop-color="#7EF0CA"/>
</linearGradient>
</defs>
</svg>
