<svg width="98" height="31" viewBox="0 0 98 31" fill="none" xmlns="http://www.w3.org/2000/svg">
<path d="M21.9807 0H8.23213C3.68565 0 0 3.68565 0 8.23213V21.9807C0 26.5271 3.68565 30.2128 8.23213 30.2128H21.9807C26.5271 30.2128 30.2128 26.5271 30.2128 21.9807V8.23213C30.2128 3.68565 26.5271 0 21.9807 0Z" fill="#ECFDF5"/>
<path d="M23.5521 12.8504C23.5521 8.19454 19.7469 4.4187 15.0549 4.4187C10.3628 4.4187 6.55762 8.19454 6.55762 12.8504C6.55762 17.5062 12.907 25.8317 15.0549 25.8317C17.2028 25.8317 23.5521 17.5062 23.5521 12.8504Z" fill="#064A34"/>
<path d="M18.1746 9.71831C18.1496 8.7605 17.7714 7.96186 17.0245 7.51177C15.3586 6.50181 12.499 7.60782 10.6394 9.97629C8.77979 12.3448 8.6204 15.0837 10.2862 16.0937C10.7706 16.3873 11.3551 16.4971 11.9864 16.4532C11.9551 15.2731 12.4583 13.8542 13.4866 12.5451C14.8086 10.8628 16.6307 9.8226 18.1715 9.72106L18.1746 9.71831Z" fill="#0D9467"/>
<path d="M19.875 10.0805C19.3906 9.78686 18.8061 9.67708 18.1748 9.72099C18.2061 10.9011 17.7029 12.32 16.6746 13.6291C15.3526 15.3115 13.5305 16.3516 11.9897 16.4531C12.0147 17.411 12.3929 18.2096 13.1399 18.6597C14.8057 19.6697 17.6654 18.5636 19.525 16.1952C21.3845 13.8267 21.5439 11.0877 19.875 10.0778V10.0805Z" fill="#0D9467"/>
<path fill-rule="evenodd" clip-rule="evenodd" d="M16.6745 13.6291C17.7028 12.3199 18.206 10.9011 18.1747 9.72095C16.6308 9.82524 14.8087 10.8626 13.4898 12.545C12.4616 13.8541 11.9584 15.273 11.9897 16.4531C13.5336 16.3488 15.3557 15.3114 16.6745 13.6291Z" fill="#9FE3CD"/>
<path d="M52.4438 8.2915V10.0514C52.3892 10.7823 52.2884 11.5047 52.1413 12.2272C51.9943 12.9496 51.8053 13.6553 51.5743 14.3441C51.6289 14.4239 51.6835 14.5037 51.7465 14.5751C51.8095 14.6465 51.8725 14.7263 51.9397 14.8061C51.9943 14.8859 52.0531 14.9657 52.1119 15.0371C52.1708 15.1127 52.238 15.1842 52.3052 15.2514C52.5068 15.5622 52.7126 15.8814 52.9226 16.2132C53.1326 16.545 53.351 16.8937 53.582 17.2549L51.4147 18.8762C51.2131 18.5402 51.0115 18.221 50.8183 17.9227C50.6208 17.6245 50.436 17.3431 50.2596 17.0743C49.9908 17.4775 49.701 17.8723 49.3902 18.2504C49.0793 18.6284 48.7433 18.9854 48.3779 19.3214L46.1896 17.5993C46.3114 17.4901 46.4248 17.3767 46.534 17.2549C46.6432 17.1331 46.7482 17.0071 46.8574 16.8685C46.8028 16.8139 46.7482 16.7551 46.6852 16.6879C46.6264 16.6206 46.5676 16.545 46.513 16.4652L45.9669 15.978C45.8871 15.9234 45.8115 15.8688 45.7443 15.8142C45.6771 15.7596 45.6099 15.7008 45.5427 15.6336C45.4629 15.768 45.3873 15.9024 45.3201 16.0368C45.2529 16.1712 45.1773 16.3014 45.0975 16.4232C44.8539 16.8139 44.5934 17.1877 44.3162 17.5489C44.039 17.9059 43.7408 18.2462 43.4132 18.5696L41.145 16.8937C41.5104 16.5282 41.8465 16.1376 42.1573 15.7176C42.4681 15.2976 42.7579 14.8481 43.0267 14.3609C43.283 13.9031 43.493 13.4284 43.6526 12.9412C43.8164 12.454 43.9298 11.9709 43.997 11.4837H42.0355V8.2915H46.996V9.71119C46.996 10.0766 46.9792 10.442 46.9456 10.8033C46.912 11.1687 46.8658 11.5341 46.8154 11.8953C46.7734 12.0843 46.7356 12.265 46.702 12.4414C46.6684 12.6178 46.6306 12.7942 46.5928 12.9664L46.6348 12.9076C46.702 12.9748 46.7734 13.042 46.849 13.1092C46.9246 13.1764 47.0086 13.252 47.101 13.3318C47.1808 13.399 47.269 13.4746 47.3656 13.5544C47.458 13.6343 47.5588 13.7183 47.6681 13.7981L48.3989 14.5289C48.4241 14.4743 48.4577 14.4113 48.4913 14.3357C48.5249 14.2601 48.5627 14.1845 48.6047 14.1047C48.7643 13.7015 48.9071 13.2772 49.0289 12.8404C49.1508 12.4036 49.2516 11.9541 49.3314 11.4921H47.7941V8.2915H52.4522H52.4438ZM46.2862 19.3256V21.451H57.6647V24.387H42.7453V19.3256H46.2904H46.2862ZM59.7523 11.3283V14.8313C59.7103 14.8313 59.6682 14.8313 59.622 14.8397C59.5758 14.8481 59.5254 14.8481 59.4708 14.8481H59.1684C59.0466 14.8607 58.9248 14.8775 58.803 14.8901C58.6812 14.9027 58.5678 14.9153 58.4586 14.9321C58.3914 14.9447 58.3284 14.9573 58.2654 14.9615C58.2066 14.9699 58.1477 14.9783 58.0931 14.9909C58.0385 15.0035 57.9839 15.0161 57.9293 15.0203C57.8747 15.0287 57.8285 15.0287 57.7865 15.0287C57.7067 15.0539 57.6395 15.0791 57.5933 15.1001C57.5471 15.1211 57.5009 15.1379 57.4631 15.1505V19.502H53.9181V8.12769H57.4631V11.7945C57.5723 11.7273 57.6941 11.6643 57.8285 11.6139C57.9629 11.5593 58.1183 11.5047 58.2948 11.4543C58.4712 11.4123 58.6812 11.3829 58.9206 11.3619C59.1642 11.3409 59.4414 11.3325 59.7523 11.3325V11.3283Z" fill="#2E2E2F"/>
<path d="M77.0614 18.8175H71.5338V20.9428H78.0737V24.1812H61.3271V20.9428H67.867V18.8175H62.4192V8.43018H77.0572V18.8175H77.0614ZM73.5206 15.6589V11.5678H65.9685V15.6589H73.5206Z" fill="#2E2E2F"/>
<path d="M85.2227 8.02686C85.6008 8.02686 85.962 8.06466 86.3064 8.13606C86.6508 8.21167 86.9827 8.31667 87.3103 8.45108C87.6085 8.61489 87.8857 8.80811 88.1419 9.03912C88.3982 9.27014 88.6418 9.53896 88.8728 9.84978C89.0744 10.1732 89.2634 10.5428 89.4398 10.9544C89.6162 11.3661 89.7632 11.8155 89.8851 12.3027C89.9943 12.8152 90.0783 13.3738 90.1371 13.9829C90.1959 14.5919 90.2295 15.2429 90.2295 15.9486C90.2295 16.6542 90.2001 17.3473 90.1371 17.9647C90.0783 18.578 89.9901 19.1282 89.8851 19.6154C89.7632 20.1279 89.6162 20.5857 89.4398 20.9931C89.2634 21.3963 89.0744 21.7576 88.8728 22.0642C88.6418 22.3876 88.4024 22.6648 88.1419 22.8958C87.8857 23.1269 87.6085 23.3075 87.3103 23.4419C86.9869 23.5889 86.6508 23.6981 86.3064 23.7653C85.962 23.8325 85.6008 23.8661 85.2227 23.8661C84.8195 23.8661 84.4415 23.8325 84.0971 23.7653C83.7527 23.6981 83.4334 23.5889 83.1352 23.4419C82.8118 23.3075 82.5178 23.1269 82.2532 22.8958C81.9885 22.6648 81.7575 22.3876 81.5559 22.0642C81.3249 21.7534 81.1317 21.3963 80.9679 20.9931C80.8041 20.5899 80.6696 20.1279 80.5646 19.6154C80.4428 19.1282 80.3546 18.578 80.3 17.9647C80.2454 17.3515 80.2202 16.6794 80.2202 15.9486C80.2202 15.2177 80.2454 14.5919 80.3 13.9829C80.3546 13.3738 80.4428 12.8152 80.5646 12.3027C80.6738 11.8155 80.8083 11.3661 80.9679 10.9544C81.1317 10.5428 81.3249 10.1732 81.5559 9.84978C81.7575 9.53896 81.9927 9.27014 82.2532 9.03912C82.5178 8.80811 82.8118 8.61489 83.1352 8.45108C83.4334 8.31667 83.7527 8.21167 84.0971 8.13606C84.4415 8.06046 84.8153 8.02686 85.2227 8.02686ZM85.2227 11.3661C85.1135 11.3661 85.0085 11.3829 84.9077 11.4165C84.8069 11.4501 84.7145 11.4879 84.6347 11.5257C84.5255 11.5929 84.4331 11.6769 84.3533 11.7777C84.2735 11.8785 84.1979 12.0087 84.1307 12.1725C84.0509 12.3363 83.9837 12.5338 83.9375 12.769C83.8913 13.0042 83.8451 13.2646 83.8073 13.5502C83.7526 13.861 83.7148 14.2139 83.6938 14.6129C83.6728 15.0119 83.6644 15.4529 83.6644 15.9402C83.6644 16.4526 83.6728 16.9104 83.6938 17.3053C83.7148 17.7001 83.7526 18.0445 83.8073 18.3259C83.8493 18.6368 83.8913 18.9056 83.9375 19.1366C83.9837 19.3676 84.0509 19.5608 84.1307 19.7246C84.1979 19.8884 84.2735 20.0229 84.3533 20.1279C84.4331 20.2371 84.5297 20.3085 84.6347 20.3505C84.7145 20.4177 84.8069 20.4597 84.9077 20.4807C85.0085 20.5017 85.1135 20.5101 85.2227 20.5101C85.3026 20.5101 85.3908 20.5017 85.4874 20.4807C85.5798 20.4597 85.6806 20.4177 85.7898 20.3505C85.8696 20.3085 85.9536 20.2371 86.0418 20.1279C86.13 20.0186 86.214 19.8842 86.2938 19.7246C86.3484 19.5608 86.4072 19.3676 86.466 19.1366C86.5248 18.9056 86.5836 18.6368 86.6382 18.3259C86.6802 18.0445 86.7138 17.7001 86.739 17.3053C86.7642 16.9104 86.7811 16.4526 86.7811 15.9402C86.7811 15.4529 86.7684 15.0119 86.739 14.6129C86.7096 14.2139 86.6802 13.861 86.6382 13.5502C86.5836 13.2688 86.529 13.0084 86.466 12.769C86.403 12.5296 86.3484 12.3321 86.2938 12.1725C86.214 12.0087 86.13 11.8785 86.0418 11.7777C85.9536 11.6769 85.8696 11.5929 85.7898 11.5257C85.6806 11.4837 85.5798 11.4501 85.4874 11.4165C85.3908 11.3829 85.3068 11.3661 85.2227 11.3661ZM98 13.5334V17.0365C97.9202 17.0365 97.832 17.0365 97.7354 17.0449C97.643 17.0533 97.538 17.0617 97.433 17.0743C97.3237 17.0743 97.2187 17.0827 97.1095 17.0953C97.0003 17.1079 96.8869 17.1163 96.7651 17.1163C96.5341 17.1583 96.3157 17.1961 96.1057 17.2381C95.8957 17.2801 95.6982 17.3179 95.5092 17.3599V24.4247H91.7626V8.12766H95.5092V13.8988C95.6982 13.8442 95.8957 13.7938 96.1057 13.7476C96.3157 13.7014 96.5425 13.6552 96.7819 13.6174C96.9037 13.6174 97.0213 13.609 97.1347 13.5964C97.2481 13.5838 97.3531 13.5754 97.4498 13.5754C97.559 13.5628 97.6556 13.5502 97.7438 13.546C97.832 13.5376 97.916 13.5376 97.9958 13.5376L98 13.5334Z" fill="#2E2E2F"/>
</svg>
