<svg width="31" height="31" viewBox="0 0 31 31" fill="none" xmlns="http://www.w3.org/2000/svg">
<path d="M21.9807 0H8.23213C3.68565 0 0 3.68565 0 8.23213V21.9807C0 26.5271 3.68565 30.2128 8.23213 30.2128H21.9807C26.5271 30.2128 30.2128 26.5271 30.2128 21.9807V8.23213C30.2128 3.68565 26.5271 0 21.9807 0Z" fill="#ECFDF5"/>
<path d="M23.5523 12.8504C23.5523 8.19454 19.7471 4.4187 15.0551 4.4187C10.3631 4.4187 6.55786 8.19454 6.55786 12.8504C6.55786 17.5062 12.9072 25.8317 15.0551 25.8317C17.203 25.8317 23.5523 17.5062 23.5523 12.8504Z" fill="#064A34"/>
<path d="M18.1748 9.71831C18.1498 8.7605 17.7717 7.96186 17.0247 7.51177C15.3589 6.50181 12.4992 7.60782 10.6396 9.97629C8.78004 12.3448 8.62064 15.0837 10.2865 16.0937C10.7709 16.3873 11.3553 16.4971 11.9866 16.4532C11.9554 15.2731 12.4586 13.8542 13.4868 12.5451C14.8088 10.8628 16.6309 9.8226 18.1717 9.72106L18.1748 9.71831Z" fill="#0D9467"/>
<path d="M19.8752 10.0805C19.3908 9.78686 18.8064 9.67708 18.1751 9.72099C18.2063 10.9011 17.7031 12.32 16.6749 13.6291C15.3529 15.3115 13.5308 16.3516 11.99 16.4531C12.015 17.411 12.3932 18.2096 13.1401 18.6597C14.8059 19.6697 17.6656 18.5636 19.5252 16.1952C21.3848 13.8267 21.5442 11.0877 19.8752 10.0778V10.0805Z" fill="#0D9467"/>
<path fill-rule="evenodd" clip-rule="evenodd" d="M16.6745 13.6291C17.7028 12.3199 18.206 10.9011 18.1747 9.72095C16.6308 9.82524 14.8087 10.8626 13.4898 12.545C12.4616 13.8541 11.9584 15.273 11.9897 16.4531C13.5336 16.3488 15.3557 15.3114 16.6745 13.6291Z" fill="#9FE3CD"/>
</svg>
