<svg width="28" height="28" viewBox="0 0 28 28" fill="none" xmlns="http://www.w3.org/2000/svg">
<path fill-rule="evenodd" clip-rule="evenodd" d="M9.79522 3.5H18.2035C19.4892 3.49999 20.5262 3.49998 21.3655 3.56968C22.2298 3.64145 22.9884 3.79313 23.6884 4.15676C24.7538 4.7102 25.6225 5.5789 26.1759 6.64432C26.5396 7.34432 26.6912 8.1029 26.763 8.96719C26.8327 9.80649 26.8327 10.8435 26.8327 12.1292V15.8708C26.8327 17.1565 26.8327 18.1935 26.763 19.0328C26.6912 19.8971 26.5396 20.6557 26.1759 21.3557C25.6225 22.4211 24.7538 23.2898 23.6884 23.8432C22.9884 24.2069 22.2298 24.3585 21.3655 24.4303C20.5262 24.5 19.4892 24.5 18.2034 24.5H9.79526C8.50953 24.5 7.47251 24.5 6.63321 24.4303C5.76892 24.3585 5.01034 24.2069 4.31033 23.8432C3.24491 23.2898 2.37621 22.4211 1.82277 21.3557C1.45915 20.6557 1.30747 19.8971 1.23569 19.0328C1.16599 18.1935 1.166 17.1565 1.16602 15.8708V12.1292C1.166 10.8435 1.16599 9.80648 1.23569 8.96719C1.30747 8.1029 1.45915 7.34432 1.82277 6.64432C2.37621 5.5789 3.24491 4.7102 4.31033 4.15676C5.01034 3.79313 5.76892 3.64145 6.6332 3.56968C7.4725 3.49998 8.50951 3.49999 9.79522 3.5ZM6.12754 5.98558C7.11763 6.21788 8.03673 6.7102 8.78455 7.42241L12.2131 10.6877C12.6873 11.1393 12.993 11.4293 13.2437 11.6319C13.4831 11.8254 13.5958 11.8744 13.6582 11.8934C13.8805 11.9614 14.1182 11.9614 14.3405 11.8934C14.4029 11.8744 14.5156 11.8254 14.755 11.6319C15.0057 11.4293 15.3114 11.1393 15.7856 10.6877L19.2141 7.42241C19.962 6.7102 20.8811 6.21788 21.8712 5.98558C21.6751 5.94793 21.446 5.91773 21.1724 5.89501C20.441 5.83427 19.5011 5.83333 18.1527 5.83333H9.84602C8.49762 5.83333 7.55767 5.83427 6.82631 5.89501C6.55271 5.91773 6.32359 5.94793 6.12754 5.98558ZM24.2784 8.16667H23.1868C22.3069 8.16667 21.4606 8.50518 20.8233 9.11207L17.3626 12.408C16.9297 12.8203 16.5553 13.177 16.2219 13.4464C15.8692 13.7316 15.488 13.9825 15.0229 14.1248C14.3558 14.3288 13.6429 14.3288 12.9757 14.1248C12.5107 13.9825 12.1295 13.7316 11.7768 13.4464C11.4434 13.177 11.069 12.8203 10.6361 12.408L7.17536 9.11207C6.53812 8.50518 5.69184 8.16667 4.81185 8.16667H3.72034C3.64937 8.41941 3.59622 8.73649 3.56102 9.1603C3.50029 9.89165 3.49935 10.8316 3.49935 12.18V15.82C3.49935 17.1684 3.50029 18.1083 3.56102 18.8397C3.6206 19.5571 3.73162 19.9686 3.8934 20.2801C4.22547 20.9193 4.74669 21.4405 5.38594 21.7726C5.69738 21.9344 6.10893 22.0454 6.82631 22.105C7.55767 22.1657 8.49762 22.1667 9.84602 22.1667H18.1527C19.5011 22.1667 20.441 22.1657 21.1724 22.105C21.8898 22.0454 22.3013 21.9344 22.6128 21.7726C23.252 21.4405 23.7732 20.9193 24.1053 20.2801C24.2671 19.9686 24.3781 19.5571 24.4377 18.8397C24.4984 18.1083 24.4993 17.1684 24.4993 15.82V12.18C24.4993 10.8316 24.4984 9.89165 24.4377 9.1603C24.4025 8.73649 24.3493 8.41941 24.2784 8.16667Z" fill="white"/>
</svg>
