<svg width="28" height="28" viewBox="0 0 28 28" fill="none" xmlns="http://www.w3.org/2000/svg">
<rect width="28" height="28" rx="14" fill="#ECFDF5"/>
<path d="M14 3.5C16.4025 3.5 18.7067 4.48741 20.4055 6.24501C22.1044 8.00261 23.0588 10.3864 23.0588 12.8721C23.0588 16.0731 21.3719 18.6931 19.5943 20.5728C18.7061 21.5015 17.737 22.3437 16.6995 23.0886L16.2707 23.3906L16.0694 23.5291L15.69 23.779L15.3518 23.9925L14.933 24.2445C14.6487 24.412 14.3272 24.5 14 24.5C13.6728 24.5 13.3513 24.412 13.0669 24.2445L12.6482 23.9925L12.1248 23.6593L11.9316 23.5291L11.5189 23.2448C10.3996 22.461 9.3569 21.5661 8.40566 20.5728C6.62812 18.6911 4.94116 16.0731 4.94116 12.8721C4.94116 10.3864 5.89557 8.00261 7.59443 6.24501C9.29329 4.48741 11.5974 3.5 14 3.5Z" fill="#10B981"/>
<circle cx="13.9998" cy="13" r="3" fill="white"/>
</svg>
