<svg width="38" height="39" viewBox="0 0 38 39" fill="none" xmlns="http://www.w3.org/2000/svg">
<path fill-rule="evenodd" clip-rule="evenodd" d="M21.5854 3.49273C21.5854 1.73674 20.3775 0.313232 18.8874 0.313232C17.3973 0.313232 16.1894 1.73674 16.1894 3.49273V16.6648H3.14771C1.40928 16.6648 0 17.8849 0 19.3901C0 20.8952 1.40928 22.1154 3.14771 22.1154H16.1894V35.2878C16.1894 37.0438 17.3973 38.4673 18.8874 38.4673C20.3775 38.4673 21.5854 37.0438 21.5854 35.2878V22.1154H34.6248C36.3632 22.1154 37.7725 20.8952 37.7725 19.3901C37.7725 17.8849 36.3632 16.6648 34.6248 16.6648H21.5854V3.49273Z" fill="#E7E7E9"/>
</svg>
