<svg width="305" height="21" viewBox="0 0 305 21" fill="none" xmlns="http://www.w3.org/2000/svg">
<path fill-rule="evenodd" clip-rule="evenodd" d="M298.201 6.92999C301.934 6.92999 304.965 4.06891 305 0.526907V21L0 21L0 0.464984C0 4.0355 3.04419 6.92997 6.79938 6.92997C10.5546 6.92997 13.5988 4.0355 13.5988 0.464984C13.5988 0.308631 13.5929 0.153574 13.5814 0L19.4444 0C19.4329 0.153575 19.4271 0.308633 19.4271 0.464987C19.4271 4.0355 22.4713 6.92997 26.2265 6.92997C29.9817 6.92997 33.0259 4.0355 33.0259 0.464987C33.0259 0.308633 33.02 0.153575 33.0086 0L38.8715 0C38.8601 0.153576 38.8542 0.308634 38.8542 0.464989C38.8542 4.0355 41.8984 6.92997 45.6536 6.92997C49.4088 6.92997 52.453 4.0355 52.453 0.464989C52.453 0.308634 52.4471 0.153576 52.4357 0L58.2976 0C58.2861 0.153576 58.2803 0.308635 58.2803 0.46499C58.2803 4.0355 61.3245 6.92997 65.0797 6.92997C68.8349 6.92997 71.8791 4.0355 71.8791 0.46499C71.8791 0.308635 71.8732 0.153576 71.8617 0L77.7247 0C77.7133 0.153577 77.7074 0.308636 77.7074 0.464992C77.7074 4.0355 80.7516 6.92998 84.5068 6.92998C88.262 6.92998 91.3062 4.0355 91.3062 0.464992C91.3062 0.308636 91.3003 0.153577 91.2889 0L97.1518 0C97.1404 0.153577 97.1345 0.308637 97.1345 0.464993C97.1345 4.03551 100.179 6.92998 103.934 6.92998C107.689 6.92998 110.733 4.03551 110.733 0.464993C110.733 0.308637 110.727 0.153577 110.716 0L116.578 0C116.566 0.153578 116.561 0.308638 116.561 0.464995C116.561 4.03551 119.605 6.92998 123.36 6.92998C127.115 6.92998 130.159 4.03551 130.159 0.464995C130.159 0.308638 130.154 0.153578 130.142 0L136.005 0C135.994 0.153578 135.988 0.308639 135.988 0.464996C135.988 4.03551 139.032 6.92998 142.787 6.92998C146.542 6.92998 149.586 4.03551 149.586 0.464996C149.586 0.308639 149.581 0.153578 149.569 0L155.432 0C155.421 0.153579 155.415 0.30864 155.415 0.464998C155.415 4.03551 158.459 6.92998 162.214 6.92998C165.969 6.92998 169.014 4.03551 169.014 0.464998C169.014 0.30864 169.008 0.153579 168.996 0L174.858 0C174.847 0.153579 174.841 0.308641 174.841 0.465C174.841 4.03551 177.885 6.92998 181.64 6.92998C185.396 6.92998 188.44 4.03551 188.44 0.465C188.44 0.308641 188.434 0.153579 188.422 0L194.285 0C194.274 0.15358 194.268 0.308643 194.268 0.465002C194.268 4.03551 197.312 6.92999 201.067 6.92999C204.823 6.92999 207.867 4.03551 207.867 0.465002C207.867 0.308643 207.861 0.15358 207.849 0L213.712 0C213.701 0.15358 213.695 0.308643 213.695 0.465003C213.695 4.03551 216.739 6.92999 220.495 6.92999C224.25 6.92999 227.294 4.03551 227.294 0.465003C227.294 0.308643 227.288 0.15358 227.277 0L233.139 0C233.127 0.153581 233.121 0.308644 233.121 0.465004C233.121 4.03552 236.165 6.92999 239.921 6.92999C243.676 6.92999 246.72 4.03552 246.72 0.465004C246.72 0.308644 246.714 0.153581 246.703 0L252.566 0C252.554 0.153581 252.548 0.308646 252.548 0.465006C252.548 4.03552 255.593 6.92999 259.348 6.92999C263.103 6.92999 266.147 4.03552 266.147 0.465006C266.147 0.308646 266.141 0.153581 266.13 0L271.993 0C271.981 0.153582 271.975 0.308647 271.975 0.465008C271.975 4.03552 275.02 6.92999 278.775 6.92999C282.53 6.92999 285.574 4.03552 285.574 0.465008C285.574 0.308647 285.568 0.153582 285.557 0L291.419 0C291.407 0.153583 291.402 0.308648 291.402 0.46501C291.402 4.03552 294.446 6.92999 298.201 6.92999ZM304.983 0C304.993 0.133294 304.999 0.267706 305 0.403112V0L304.983 0ZM0 0.464984L0 0L0.0173164 0C0.00583745 0.153574 0 0.308631 0 0.464984Z" fill="white"/>
</svg>
