<svg width="305" height="21" viewBox="0 0 305 21" fill="none" xmlns="http://www.w3.org/2000/svg">
<path fill-rule="evenodd" clip-rule="evenodd" d="M6.79907 14.07C3.06561 14.07 0.0349423 16.9311 -4.60637e-08 20.4731L-1.83588e-06 2.66639e-05L305 0L305 20.535C305 16.9645 301.956 14.07 298.201 14.07C294.445 14.07 291.401 16.9645 291.401 20.535C291.401 20.6914 291.407 20.8464 291.419 21L285.556 21C285.567 20.8464 285.573 20.6914 285.573 20.535C285.573 16.9645 282.529 14.07 278.774 14.07C275.018 14.07 271.974 16.9645 271.974 20.535C271.974 20.6914 271.98 20.8464 271.991 21L266.128 21C266.14 20.8464 266.146 20.6914 266.146 20.535C266.146 16.9645 263.102 14.07 259.346 14.07C255.591 14.07 252.547 16.9645 252.547 20.535C252.547 20.6914 252.553 20.8464 252.564 21L246.702 21C246.714 20.8464 246.72 20.6914 246.72 20.535C246.72 16.9645 243.676 14.07 239.92 14.07C236.165 14.07 233.121 16.9645 233.121 20.535C233.121 20.6914 233.127 20.8464 233.138 21L227.275 21C227.287 20.8464 227.293 20.6914 227.293 20.535C227.293 16.9645 224.248 14.07 220.493 14.07C216.738 14.07 213.694 16.9645 213.694 20.535C213.694 20.6914 213.7 20.8464 213.711 21L207.848 21C207.86 20.8464 207.865 20.6914 207.865 20.535C207.865 16.9645 204.821 14.07 201.066 14.07C197.311 14.07 194.267 16.9645 194.267 20.535C194.267 20.6914 194.273 20.8464 194.284 21L188.422 21C188.434 20.8464 188.439 20.6914 188.439 20.535C188.439 16.9645 185.395 14.07 181.64 14.07C177.885 14.07 174.841 16.9645 174.841 20.535C174.841 20.6914 174.846 20.8464 174.858 21L168.995 21C169.006 20.8464 169.012 20.6914 169.012 20.535C169.012 16.9645 165.968 14.07 162.213 14.07C158.458 14.07 155.414 16.9645 155.414 20.535C155.414 20.6914 155.419 20.8464 155.431 21L149.568 21C149.579 20.8464 149.585 20.6914 149.585 20.535C149.585 16.9645 146.541 14.07 142.786 14.07C139.031 14.07 135.986 16.9645 135.986 20.535C135.986 20.6914 135.992 20.8464 136.004 21L130.142 21C130.153 20.8464 130.159 20.6914 130.159 20.535C130.159 16.9645 127.115 14.07 123.36 14.07C119.604 14.07 116.56 16.9645 116.56 20.535C116.56 20.6914 116.566 20.8464 116.578 21L110.715 21C110.726 20.8464 110.732 20.6914 110.732 20.535C110.732 16.9645 107.688 14.07 103.933 14.07C100.177 14.07 97.1332 16.9645 97.1332 20.535C97.1332 20.6914 97.1391 20.8464 97.1505 21L91.2875 21C91.299 20.8464 91.3049 20.6914 91.3049 20.535C91.3049 16.9645 88.2607 14.07 84.5055 14.07C80.7503 14.07 77.7061 16.9645 77.7061 20.535C77.7061 20.6914 77.7119 20.8464 77.7234 21L71.8615 21C71.8729 20.8464 71.8788 20.6914 71.8788 20.535C71.8788 16.9645 68.8346 14.07 65.0794 14.07C61.3242 14.07 58.28 16.9645 58.28 20.535C58.28 20.6914 58.2859 20.8464 58.2973 21L52.4343 21C52.4458 20.8464 52.4517 20.6914 52.4517 20.535C52.4517 16.9645 49.4075 14.07 45.6523 14.07C41.8971 14.07 38.8529 16.9645 38.8529 20.535C38.8529 20.6914 38.8587 20.8464 38.8702 21L33.0072 21C33.0187 20.8464 33.0245 20.6914 33.0245 20.535C33.0245 16.9645 29.9803 14.07 26.2252 14.07C22.47 14.07 19.4258 16.9645 19.4258 20.535C19.4258 20.6914 19.4316 20.8464 19.4431 21L13.5811 21C13.5926 20.8464 13.5984 20.6914 13.5984 20.535C13.5984 16.9645 10.5543 14.07 6.79907 14.07ZM0.0169983 21C0.00704955 20.8667 0.00134275 20.7323 -3.52412e-08 20.5969L0 21L0.0169983 21ZM305 20.535L305 21L304.983 21C304.994 20.8464 305 20.6914 305 20.535Z" fill="white"/>
</svg>
